<?xml version="1.0" encoding="UTF-8" standalone="no"?>
<!-- Created with Inkscape (http://www.inkscape.org/) -->

<svg
   xmlns:dc="http://purl.org/dc/elements/1.1/"
   xmlns:cc="http://creativecommons.org/ns#"
   xmlns:rdf="http://www.w3.org/1999/02/22-rdf-syntax-ns#"
   xmlns:svg="http://www.w3.org/2000/svg"
   xmlns="http://www.w3.org/2000/svg"
   xmlns:sodipodi="http://sodipodi.sourceforge.net/DTD/sodipodi-0.dtd"
   xmlns:inkscape="http://www.inkscape.org/namespaces/inkscape"
   width="744.09448819"
   height="1052.3622047"
   id="svg4989"
   version="1.1"
   inkscape:version="0.91 r13725"
   sodipodi:docname="Stability2.svg">
  <defs
     id="defs4991">
    <marker
       inkscape:stockid="Arrow1Lend"
       orient="auto"
       refY="0.0"
       refX="0.0"
       id="marker5166"
       style="overflow:visible;"
       inkscape:isstock="true">
      <path
         id="path5168"
         d="M 0.0,0.0 L 5.0,-5.0 L -12.5,0.0 L 5.0,5.0 L 0.0,0.0 z "
         style="fill-rule:evenodd;stroke:#ff0000;stroke-width:1pt;stroke-opacity:1;fill:#ff0000;fill-opacity:1"
         transform="scale(0.8) rotate(180) translate(12.5,0)" />
    </marker>
    <marker
       inkscape:stockid="Arrow1Lstart"
       orient="auto"
       refY="0.0"
       refX="0.0"
       id="marker5162"
       style="overflow:visible"
       inkscape:isstock="true">
      <path
         id="path5164"
         d="M 0.0,0.0 L 5.0,-5.0 L -12.5,0.0 L 5.0,5.0 L 0.0,0.0 z "
         style="fill-rule:evenodd;stroke:#ff0000;stroke-width:1pt;stroke-opacity:1;fill:#ff0000;fill-opacity:1"
         transform="scale(0.8) translate(12.5,0)" />
    </marker>
    <marker
       inkscape:stockid="Arrow1Lend"
       orient="auto"
       refY="0.0"
       refX="0.0"
       id="marker5157"
       style="overflow:visible;"
       inkscape:isstock="true">
      <path
         id="path4901"
         d="M 0.0,0.0 L 5.0,-5.0 L -12.5,0.0 L 5.0,5.0 L 0.0,0.0 z "
         style="fill-rule:evenodd;stroke:#ff0000;stroke-width:1pt;stroke-opacity:1;fill:#ff0000;fill-opacity:1"
         transform="scale(0.8) rotate(180) translate(12.5,0)" />
    </marker>
    <marker
       inkscape:stockid="Arrow1Lstart"
       orient="auto"
       refY="0.0"
       refX="0.0"
       id="marker5154"
       style="overflow:visible"
       inkscape:isstock="true">
      <path
         id="path4898"
         d="M 0.0,0.0 L 5.0,-5.0 L -12.5,0.0 L 5.0,5.0 L 0.0,0.0 z "
         style="fill-rule:evenodd;stroke:#ff0000;stroke-width:1pt;stroke-opacity:1;fill:#ff0000;fill-opacity:1"
         transform="scale(0.8) translate(12.5,0)" />
    </marker>
    <marker
       inkscape:stockid="Arrow1Lend"
       orient="auto"
       refY="0.0"
       refX="0.0"
       id="Arrow1Lend"
       style="overflow:visible;">
      <path
         id="path3957"
         d="M 0.0,0.0 L 5.0,-5.0 L -12.5,0.0 L 5.0,5.0 L 0.0,0.0 z "
         style="fill-rule:evenodd;stroke:#000000;stroke-width:1.0pt;"
         transform="scale(0.8) rotate(180) translate(12.5,0)" />
    </marker>
    <marker
       inkscape:stockid="Arrow1Lstart"
       orient="auto"
       refY="0.0"
       refX="0.0"
       id="Arrow1Lstart"
       style="overflow:visible">
      <path
         id="path3954"
         d="M 0.0,0.0 L 5.0,-5.0 L -12.5,0.0 L 5.0,5.0 L 0.0,0.0 z "
         style="fill-rule:evenodd;stroke:#000000;stroke-width:1.0pt"
         transform="scale(0.8) translate(12.5,0)" />
    </marker>
  </defs>
  <sodipodi:namedview
     id="base"
     pagecolor="#ffffff"
     bordercolor="#666666"
     borderopacity="1.0"
     inkscape:pageopacity="0.0"
     inkscape:pageshadow="2"
     inkscape:zoom="4"
     inkscape:cx="375"
     inkscape:cy="775.65099"
     inkscape:document-units="px"
     inkscape:current-layer="layer1"
     showgrid="false"
     inkscape:window-width="1887"
     inkscape:window-height="1056"
     inkscape:window-x="33"
     inkscape:window-y="24"
     inkscape:window-maximized="1" />
  <metadata
     id="metadata4994">
    <rdf:RDF>
      <cc:Work
         rdf:about="">
        <dc:format>image/svg+xml</dc:format>
        <dc:type
           rdf:resource="http://purl.org/dc/dcmitype/StillImage" />
        <dc:title></dc:title>
      </cc:Work>
    </rdf:RDF>
  </metadata>
  <g
     inkscape:label="Layer 1"
     inkscape:groupmode="layer"
     id="layer1">
    <path
       sodipodi:type="arc"
       style="stroke:none"
       id="path2985-7"
       sodipodi:cx="152"
       sodipodi:cy="151.36218"
       sodipodi:rx="10"
       sodipodi:ry="9"
       d="m 162,151.36218 a 10,9 0 1 1 -20,0 10,9 0 1 1 20,0 z"
       transform="matrix(1,0,0,1.0833333,204.19644,71.010071)" />
    <path
       sodipodi:type="arc"
       style="fill:none;stroke:#ff0000;stroke-width:1;stroke-miterlimit:4;stroke-opacity:1;stroke-dasharray:3, 1;stroke-dashoffset:0"
       id="path3755-7"
       sodipodi:cx="313.75"
       sodipodi:cy="266.61218"
       sodipodi:rx="91.75"
       sodipodi:ry="90.25"
       d="m 405.5,266.61218 a 91.75,90.25 0 1 1 -183.5,0 91.75,90.25 0 1 1 183.5,0 z"
       transform="matrix(0.77233799,0,0,0.77963452,112.62539,29.625711)" />
    <path
       transform="matrix(1.3116316,0,0,1.3195812,-56.57799,-114.08065)"
       sodipodi:type="arc"
       style="fill:none;stroke:#00ff00;stroke-width:1;stroke-miterlimit:4;stroke-opacity:1;stroke-dasharray:3, 1;stroke-dashoffset:0"
       id="path3755-2-0"
       sodipodi:cx="313.75"
       sodipodi:cy="266.61218"
       sodipodi:rx="91.75"
       sodipodi:ry="90.25"
       d="m 405.5,266.61218 a 91.75,90.25 0 1 1 -183.5,0 91.75,90.25 0 1 1 183.5,0 z" />
    <path
       sodipodi:type="arc"
       style="stroke:none"
       id="path2985-3-8"
       sodipodi:cx="152"
       sodipodi:cy="151.36218"
       sodipodi:rx="10"
       sodipodi:ry="9"
       d="m 162,151.36218 a 10,9 0 1 1 -20,0 10,9 0 1 1 20,0 z"
       transform="matrix(1,0,0,1.0833333,237.44644,71.510051)" />
    <path
       sodipodi:type="arc"
       style="fill:none;stroke:#ff0000;stroke-width:1;stroke-miterlimit:4;stroke-opacity:1;stroke-dasharray:3, 1;stroke-dashoffset:0"
       id="path3755-8-5"
       sodipodi:cx="313.75"
       sodipodi:cy="266.61218"
       sodipodi:rx="91.75"
       sodipodi:ry="90.25"
       d="m 405.5,266.61218 a 91.75,90.25 0 1 1 -183.5,0 91.75,90.25 0 1 1 183.5,0 z"
       transform="matrix(0.77233799,0,0,0.77963452,145.87541,30.125701)" />
    <path
       transform="matrix(1.3116316,0,0,1.3195812,-23.32798,-113.58066)"
       sodipodi:type="arc"
       style="fill:none;stroke:#00ff00;stroke-width:1;stroke-miterlimit:4;stroke-opacity:1;stroke-dasharray:3, 1;stroke-dashoffset:0"
       id="path3755-2-4-4"
       sodipodi:cx="313.75"
       sodipodi:cy="266.61218"
       sodipodi:rx="91.75"
       sodipodi:ry="90.25"
       d="m 405.5,266.61218 a 91.75,90.25 0 1 1 -183.5,0 91.75,90.25 0 1 1 183.5,0 z" />
    <path
       style="fill:none;fill-rule:evenodd;stroke:#ff0000;stroke-width:0.4;stroke-linecap:butt;stroke-linejoin:miter;stroke-opacity:1;marker-start:url(#marker5162);marker-end:url(#marker5166);stroke-miterlimit:4;stroke-dasharray:none"
       d="m 366.25,235.11218 13,-0.25"
       id="path5160"
       inkscape:connector-curvature="0" />
  </g>
</svg>
